<svg xmlns="http://www.w3.org/2000/svg" width="1280" height="640" viewBox="0 0 1280 640" role="img" aria-labelledby="title description">
  <title id="title">Argo social preview</title>
  <desc id="description">Argo traffic-aware downloads for Linux</desc>
  <defs>
    <linearGradient id="argo-social-background" x1="0" y1="0" x2="1280" y2="640" gradientUnits="userSpaceOnUse">
      <stop stop-color="#071A33"/>
      <stop offset=".62" stop-color="#0B2A4A"/>
      <stop offset="1" stop-color="#0E5AA7"/>
    </linearGradient>
    <linearGradient id="argo-social-mark" x1="108" y1="128" x2="492" y2="512" gradientUnits="userSpaceOnUse">
      <stop stop-color="#1687E8"/>
      <stop offset="1" stop-color="#0B3D78"/>
    </linearGradient>
  </defs>
  <rect width="1280" height="640" fill="url(#argo-social-background)"/>
  <g opacity=".22" fill="none" stroke="#65B8FF" stroke-width="3">
    <path d="M633 117C753 48 840 189 960 120C1066 60 1160 77 1280 37"/>
    <path d="M615 190C754 111 853 270 994 189C1100 128 1182 144 1280 115"/>
    <path d="M639 513C774 436 876 583 1007 508C1116 446 1193 458 1280 432"/>
    <circle cx="633" cy="117" r="8" fill="#65B8FF" stroke="none"/>
    <circle cx="994" cy="189" r="8" fill="#65B8FF" stroke="none"/>
    <circle cx="1007" cy="508" r="8" fill="#65B8FF" stroke="none"/>
  </g>
  <g transform="translate(84 104)">
    <rect width="432" height="432" rx="100" fill="url(#argo-social-mark)"/>
    <path d="M45 85C105 53 154 58 201 90C249 125 305 127 387 72" fill="none" stroke="#65B8FF" stroke-width="10" stroke-linecap="round" opacity=".34"/>
    <path d="M216 68V269" fill="none" stroke="#F7FBFF" stroke-width="16" stroke-linecap="round"/>
    <path d="M192 96V244H104C130 184 158 136 192 96Z" fill="#F7FBFF"/>
    <path d="M240 117V244H332C308 188 278 147 240 117Z" fill="#D8EEFF"/>
    <path d="M90 265H347L314 316H140L90 265Z" fill="#F7FBFF"/>
    <path d="M66 345C104 328 139 328 176 345C213 363 250 363 287 345C321 330 352 330 383 342" fill="none" stroke="#8BCBFF" stroke-width="14" stroke-linecap="round"/>
  </g>
  <text x="594" y="318" fill="#F7FBFF" font-family="DejaVu Sans, Liberation Sans, Arial, sans-serif" font-size="142" font-weight="700" letter-spacing="16">ARGO</text>
  <text x="602" y="383" fill="#8BCBFF" font-family="DejaVu Sans, Liberation Sans, Arial, sans-serif" font-size="30" font-weight="500">Traffic-aware downloads for Linux</text>
  <text x="602" y="443" fill="#65B8FF" font-family="DejaVu Sans Mono, Liberation Mono, monospace" font-size="21" letter-spacing="2">DOWNLOAD · SCHEDULE · NAVIGATE</text>
</svg>
